<svg width="225" height="92" viewBox="0 0 225 92" fill="none" xmlns="http://www.w3.org/2000/svg">
<path d="M18.112 87.4C29.056 87.4 41.664 82.792 41.664 73.704C41.664 58.984 5.76 65.832 5.76 60.328C5.76 59.176 6.912 57.768 9.664 57.256C12.416 58.728 15.872 59.56 20.288 59.56C33.152 59.56 39.232 52.2 39.232 44.328C39.232 39.144 35.968 33.832 29.312 31.272C31.616 28.584 34.56 28.392 36.864 28.328C39.936 28.2 41.344 26.472 41.344 24.68C41.344 23.016 40 21.352 37.632 21.352C33.024 21.352 29.952 25.704 28.608 31.016C26.24 30.248 23.488 29.8 20.352 29.8C7.424 29.8 1.792 37.16 1.92 44.392C2.048 49.192 4.096 53.928 8.832 56.808C4.16 57.832 2.24 61.096 2.24 63.656C2.24 74.856 29.632 70.056 29.76 78.696C29.824 84.136 22.464 86.376 17.344 86.376C12.544 86.376 10.176 83.688 10.176 81.32C10.176 79.336 11.648 77.608 14.592 77.48C13.568 74.216 10.688 72.68 7.936 72.68C4.608 72.68 1.472 74.856 1.472 78.888C1.472 84.712 9.024 87.4 18.112 87.4ZM20.736 58.792C16.512 58.792 14.336 51.816 14.336 44.328C14.336 37.672 16.512 30.632 20.736 30.632C24.96 30.632 26.88 37.16 26.88 44.328C26.88 51.24 24.704 58.792 20.736 58.792ZM67.0155 29.672C60.7435 29.672 57.0955 36.648 55.6235 43.112V30.248C51.2075 32.68 45.7675 33.832 40.9675 33.96C43.0795 37.032 42.8235 39.912 42.8235 41.256V44.712H42.8875V55.144C42.8875 59.624 43.0795 61.16 41.2235 65.128H57.3515C55.6875 61.16 55.6875 59.624 55.6875 55.144V50.152C55.6875 43.88 58.2475 34.728 61.8955 34.728C63.3675 34.728 64.5195 36.2 64.5195 38.056C64.5195 39.08 64.0075 40.36 62.9835 41.384C64.1995 42.408 65.6715 42.728 67.0155 42.728C70.4715 42.728 73.8635 39.848 73.8635 36.136C73.8635 32.616 71.1755 29.672 67.0155 29.672ZM91.7925 66.024C104.337 66.024 110.609 57.064 110.609 48.104C110.609 39.08 104.337 29.672 91.7925 29.672C79.1205 29.672 72.5925 39.208 72.5925 48.232C72.5925 57.128 78.9285 66.024 91.7925 66.024ZM91.7285 65.448C87.3125 65.448 85.1365 56.744 85.1365 48.04C85.1365 39.4 87.3125 30.248 91.7285 30.248C96.1445 30.248 98.3205 39.4 98.3205 48.04C98.3205 56.744 96.1445 65.448 91.7285 65.448ZM132.168 66.024C144.712 66.024 150.984 57.064 150.984 48.104C150.984 39.08 144.712 29.672 132.168 29.672C119.496 29.672 112.968 39.208 112.968 48.232C112.968 57.128 119.304 66.024 132.168 66.024ZM132.104 65.448C127.688 65.448 125.512 56.744 125.512 48.04C125.512 39.4 127.688 30.248 132.104 30.248C136.52 30.248 138.696 39.4 138.696 48.04C138.696 56.744 136.52 65.448 132.104 65.448ZM167.09 65H167.666L179.634 40.168C181.81 35.752 182.706 34.152 186.162 30.248H176.818C178.354 32.936 180.018 37.416 177.97 41.768L173.938 50.088L166.066 33.96C165.682 32.936 165.426 31.656 166.45 30.248H148.53C150.002 31.464 152.626 35.752 153.266 37.032L167.09 65ZM200.749 66.024C207.085 66.024 216.045 61.736 217.645 52.072L217.133 51.688C215.085 56.232 211.373 59.048 207.533 59.048C202.413 59.048 198.445 54.952 196.909 49.448C198.317 49.96 199.981 50.216 201.837 50.216C210.733 50.216 216.621 44.776 216.365 38.824C216.109 34.024 211.757 29.608 202.669 29.736C190.125 29.928 183.405 39.144 183.405 48.36C183.405 57.128 189.165 66.024 200.749 66.024ZM199.277 49.128C198.509 49.128 197.549 49 196.653 48.616C195.117 42.408 197.229 30.76 202.733 30.76C205.037 30.76 206.765 34.472 206.701 39.016C206.637 44.328 204.205 49.128 199.277 49.128Z" fill="black"/>
<path d="M51.62 8.96C49.8 8.96 48.62 11 48 12.94V11.76H47.98V5.96C46.6 6.72 44.9 7.08 43.4 7.12C44.06 8.08 43.98 8.98 43.98 9.4V10.48H44V16.88C44 18.28 44.06 18.76 43.48 20C45.34 19.22 49.76 20.26 50.46 20.26C53.46 20.26 55.38 17.08 55.38 13.74C55.38 11.22 54.2 8.96 51.62 8.96ZM51.4 14.84C51.34 17.7 50.2 19.54 48.78 19.54C48.52 19.54 48.24 19.5 48 19.38V14.78C48.32 12.6 49.2 10.78 50.1 10.78C50.96 10.78 51.48 12.64 51.4 14.84ZM58.8477 26.12C59.9677 26.12 61.2077 25.18 62.0877 22.54L65.5477 12.24C66.0077 10.84 66.2477 10.36 67.1677 9.14H64.2077C64.7877 9.98 65.5477 11.38 65.0877 12.74L63.5077 17.56H63.2677L60.3077 10.3C60.2077 9.98 60.1477 9.58 60.4877 9.14H54.7477C55.3077 9.5 55.9077 10.3 56.3077 11.26L59.6077 19.14C61.2677 19.2 62.0477 20.3 62.0477 21.36C62.0477 22.52 61.1477 23.56 59.6877 23.62C58.9877 23.66 58.2077 23.32 57.5477 22.56C56.8677 22.98 56.5677 23.64 56.5877 24.26C56.6477 25.22 57.4277 26.12 58.8477 26.12Z" fill="black"/>
</svg>
