<svg width="33" height="33" viewBox="0 0 33 33" fill="none" xmlns="http://www.w3.org/2000/svg">
<g clip-path="url(#clip0_490_215)">
<path d="M14.773 32.85C10.371 32.85 6.713 31.548 6.713 28.727C6.713 26.774 8.232 25.72 9.844 25.72C11.177 25.72 12.572 26.464 13.068 28.045C11.642 28.107 10.929 28.944 10.929 29.905C10.929 31.052 12.076 32.354 14.401 32.354C16.881 32.354 20.446 31.269 20.415 28.634C20.353 24.449 7.085 26.774 7.085 21.349C7.085 20.109 8.015 18.528 10.278 18.032C7.984 16.637 6.992 14.343 6.93 12.018C6.868 8.515 9.596 4.95 15.858 4.95C17.377 4.95 18.71 5.167 19.857 5.539C20.508 2.966 21.996 0.857999 24.228 0.857999C25.375 0.857999 26.026 1.664 26.026 2.47C26.026 3.338 25.344 4.175 23.856 4.237C22.74 4.268 21.314 4.361 20.198 5.663C23.422 6.903 25.003 9.476 25.003 11.987C25.003 15.8 22.058 19.365 15.827 19.365C13.688 19.365 12.014 18.962 10.681 18.249C9.348 18.497 8.79 19.179 8.79 19.737C8.79 22.403 26.181 19.086 26.181 26.216C26.181 30.618 20.074 32.85 14.773 32.85ZM16.044 18.993C17.966 18.993 19.02 15.335 19.02 11.987C19.02 8.515 18.09 5.353 16.044 5.353C13.998 5.353 12.944 8.763 12.944 11.987C12.944 15.614 13.998 18.993 16.044 18.993Z" fill="black"/>
</g>
<defs>
<clipPath id="clip0_490_215">
<rect width="33" height="33" fill="white"/>
</clipPath>
</defs>
</svg>
